<svg id="Appp" xmlns="http://www.w3.org/2000/svg" viewBox="0 0 1028 1028"><defs><style>.cls-1{fill:#247881;}.cls-2{fill:#9dccd7;}</style></defs><title>VetVerse Logo</title><g id="Layer_1" data-name="Layer 1"><path class="cls-1" d="M578,866.37c-10.8,20.84-20.89,40.13-30.81,59.5-5.14,10-9.61,20.45-15.15,30.26-2.26,4-6.15,8.57-10.1,9.51-2.3.55-7.22-5-9.2-8.8-13-24.66-25.47-49.61-38.25-74.41q-39.51-76.7-79.17-153.33-34.5-66.76-69.07-133.5c-19.08-37-37.88-74.17-57-111.16C257.33,461.54,244.94,438.91,233,416Q194.5,342,156.2,267.84,122.69,203.1,89.28,138.29c-4.37-8.49-1.19-13.55,8.48-13.41q58.92.87,117.83,2.14c17.3.38,34.59,1.45,51.89,1.87,29,.7,58.1,1,87.13,1.91,3.44.12,8.39,2.65,9.92,5.52,23.62,44.19,46.79,88.63,70,133a36.5,36.5,0,0,1,1.57,4.78c-7,.78-13.61,1-20,2.31-26.11,5.18-42.37,22.2-41.8,48.6.5,22.81,4.62,45.64,8.38,68.25,3.19,19.18,16.15,31.82,32.54,40.91,14.15,7.85,28.66,15.05,43.74,22.92-15,18.13-23,38.79-26,61.6-.32,2.44-3.37,5.38-5.87,6.53-24.22,11.12-32.11,26.67-25.41,59.23,3.85,18.67,5.13,39.13,19.22,54.22,6.29,6.75,13.31,14.15,21.53,17.52,23.94,9.83,34.34,28.62,37.91,52.28,4.27,28.33,7,56.9,11.36,85.21,6.24,40.2,31.32,65.63,72.73,71.49C568,865.68,571.51,865.82,578,866.37Z"/><path class="cls-1" d="M716.27,598.2c-13.73-45.42-21.7-89.93-26.53-134.94-2.14-20-2.24-60.48-2.24-60.48,6.44-61.16-17.83-129.21-63.43-161.37,0,0,10.23-19.18,15.15-28.49,13.37-25.27,26.52-50.67,40.31-75.7,1.74-3.16,6.74-6.22,10.36-6.38,25.12-1.07,50.27-1.48,75.42-1.88,46-.75,92.08-1.24,138.11-2.08,14.45-.27,28.87-1.62,43.32-2,9.75-.22,12.81,4.86,8.31,13.49-18.72,35.93-37.79,71.68-56.4,107.66-17.63,34.07-34.58,68.48-52.3,102.49-23,44.14-46.69,87.9-69.58,132.08-18.5,35.71-36.23,71.81-54.36,107.71Z"/><path class="cls-2" d="M571.8,523.54l10.62-10.15c6.68-7.48,11.28-12.33,15.78-17.42,3.18,24.55,6.44,52.06,10.37,79.48,3.29,22.91,14.73,42.31,29.13,59.74,14.08,17.06,29.4,33.1,54.14,38.51-5.36,9.78-9.86,17.84-14.23,26q-33.21,61.74-66.37,123.49c-4.3,8-8.47,16.07-13.57,23.52-1.78,2.59-6.31,5-9.35,4.78-36-3-59.56-17.09-63.82-59.54-3.23-32.29-8.78-64.47-15.37-96.27-5.36-25.91-19.81-46.41-45.58-56.66-18.1-7.21-26-20.45-26.31-39.62-.12-7.72-3.73-15.39-3.85-23.11-.06-3.7,3.62-10,6.75-10.81,18.95-5.05,22.9-19.56,25.83-36a119.88,119.88,0,0,1,9.34-28.66c7.67-16.64,21.94-22.57,40-20,25.39,3.64,51.18,10.77,75.89-7.12"/><path class="cls-1" d="M661.82,391.69c0,8.11.21,16.65,0,25.18C660.26,468,669.17,518,680,567.65c5.45,25.1,13.73,49.57,20.17,74.47,1.33,5.11.2,10.85.2,18.26-16.11-4-26.87-13.22-37.2-22.18-25.5-22.14-39.76-50.38-42.46-84.26s-5.42-67.93-8.47-101.86c-.32-3.5-2.23-8.58-4.79-9.68s-8.81.53-10.35,3c-16.88,26.43-41.72,26.75-68.5,22.12-9.24-1.6-18.66-2.23-29.07-3.43-.35-24.54-20.66-30.55-38.27-39.88-13-6.88-26.06-14.34-37.17-23.8-6.26-5.34-10.34-14.84-12.34-23.2-3.16-13.29-3.58-27.23-5.5-40.84-2.33-16.49,5.83-26.58,22.5-27.11,9.08-.28,18.86,1.75,27.1-1,11.37-3.75,23.42-9.07,31.88-17.17,16.71-16,35.55-27.61,57.26-34.05,19.09-5.66,37.57-1.59,55.15,8.6-35,27.18-31.61,71.33-32.49,102.49-.19,7.79-1.64,27.74-1.89,28.79-1.55,15.33,3.44,34.34,27.31,25.54C615.9,414,637.69,402.62,661.82,391.69Z"/><path class="cls-1" d="M586.33,402.76c0-23.53-.46-46,.15-68.4.44-15.85,4.39-30.9,14.49-43.49,6.42-8,14.15-10.15,24-7.44,21.55,5.92,32.28,61.17,33.57,70,1.54,10.52-2.93,18.34-10.93,22.39-19.44,9.86-39.51,18.36-59.36,27.32C587.56,403.48,586.46,402.8,586.33,402.76Z"/></g></svg>